<?xml version="1.0" encoding="utf-8"?>
<!-- Generator: Adobe Illustrator 23.0.2, SVG Export Plug-In . SVG Version: 6.00 Build 0)  -->
<svg version="1.1" id="Layer_1" xmlns="http://www.w3.org/2000/svg" xmlns:xlink="http://www.w3.org/1999/xlink" x="0px" y="0px"
	 viewBox="0 0 250 250" style="enable-background:new 0 0 250 250;" xml:space="preserve">
<style type="text/css">
	.st0{fill:#0072BC;}
</style>
<g>
	<path class="st0" d="M85.66,125.94c-5.18,0-10.5,2.66-14.56,7.56c0.28,19.32,3.36,28.84,13.3,28.84c8.4,0,12.04-8.12,12.04-18.2
		C96.44,130.84,92.52,125.94,85.66,125.94z"/>
	<path class="st0" d="M177.28,0H72.72C32.56,0,0,32.56,0,72.72v104.56C0,217.44,32.56,250,72.72,250h104.56
		c40.16,0,72.72-32.56,72.72-72.72V72.72C250,32.56,217.44,0,177.28,0z M84.12,178.16c-25.76,0-36.12-21.28-36.12-46.2
		c0-32.76,15.82-55.72,42.14-55.72c8.4,0,15.54,2.52,21,6.3l-8.4,13.44c-3.78-2.66-8.12-3.92-12.32-3.92
		c-10.36,0-18.2,9.66-19.32,27.44c5.88-5.88,13.44-8.82,20.3-8.82c15.12,0,27.16,11.62,27.16,32.2
		C118.56,162.34,105.26,178.16,84.12,178.16z M202.42,155.34h-9.66v20.44h-21.14l-0.14-20.44H131.3v-14.56l26.88-64.54l18.76,7
		l-22.82,55.58h17.5l2.38-23.38h18.76v23.38h9.66V155.34z"/>
</g>
</svg>
